<svg width="33" height="33" viewBox="0 0 33 33" fill="none" xmlns="http://www.w3.org/2000/svg">
<path d="M9.98929 20.7331C10.8974 19.1978 10.3785 17.2232 8.83022 16.3227C7.28197 15.4222 5.29069 15.9368 4.38257 17.4721C3.47446 19.0074 3.99339 20.982 5.54164 21.8825C7.08989 22.783 9.08117 22.2684 9.98929 20.7331Z" fill="#05060F"/>
<path d="M21.5057 27.7199C22.344 26.3027 21.865 24.48 20.4358 23.6487C19.0067 22.8175 17.1686 23.2925 16.3303 24.7097C15.492 26.1269 15.9711 27.9496 17.4002 28.7808C18.8294 29.6121 20.6675 29.1371 21.5057 27.7199Z" fill="#05060F"/>
<path d="M28.5878 15.745C29.426 14.3278 28.947 12.5051 27.5179 11.6738C26.0887 10.8426 24.2506 11.3176 23.4123 12.7348C22.5741 14.152 23.0531 15.9747 24.4822 16.8059C25.9114 17.6372 27.7495 17.1622 28.5878 15.745Z" fill="#05060F"/>
<path d="M23.4844 12.5793C20.5956 12.0143 17.6571 13.3171 16.1646 15.8404C16.1595 15.849 16.1545 15.8575 16.1494 15.8661L14.3721 18.8905C13.6203 20.2007 12.0438 20.8472 10.5597 20.4554L8.97261 19.5322C8.61033 19.3215 8.14503 19.4418 7.92748 19.8096C7.70993 20.1774 7.83624 20.6302 8.19852 20.8409L17.8766 26.47C18.2388 26.6807 18.7041 26.5605 18.9166 26.2012C19.1291 25.842 19.0129 25.372 18.6507 25.1613L12.9404 21.8401C14.0585 21.4787 15.0543 20.7358 15.6867 19.6666C15.6918 19.6581 15.6918 19.6581 15.6969 19.6495L17.4742 16.6251C17.4792 16.6166 17.4792 16.6166 17.4843 16.608C18.6429 14.6493 20.9308 13.6233 23.182 14.0705C23.5188 14.1284 23.838 13.9806 23.9999 13.7069C24.0404 13.6385 24.0773 13.5565 24.0919 13.473C24.1735 13.0607 23.9002 12.6603 23.4844 12.5793Z" fill="#05060F"/>
</svg>
